<svg width="45" height="45" viewBox="0 0 45 45" fill="none" xmlns="http://www.w3.org/2000/svg">
<path fill-rule="evenodd" clip-rule="evenodd" d="M37.8198 38.764C40.0404 36.6774 41.8095 34.1575 43.0176 31.3601C44.2258 28.5626 44.8473 25.5471 44.8438 22.5C44.8438 10.1594 34.8406 0.15625 22.5 0.15625C10.1594 0.15625 0.15625 10.1594 0.15625 22.5C0.152724 25.5471 0.774236 28.5626 1.98236 31.3601C3.19049 34.1575 4.95956 36.6774 7.18021 38.764C11.3211 42.6756 16.8037 44.8514 22.5 44.8438C28.1963 44.8514 33.6789 42.6756 37.8198 38.764ZM9.08229 35.8192C10.6912 33.8063 12.7329 32.1817 15.0558 31.0661C17.3787 29.9504 19.9231 29.3724 22.5 29.375C25.0769 29.3724 27.6213 29.9504 29.9442 31.0661C32.2671 32.1817 34.3088 33.8063 35.9177 35.8192C34.1623 37.5922 32.0724 38.9991 29.7691 39.9582C27.4658 40.9173 24.995 41.4095 22.5 41.4062C20.005 41.4095 17.5342 40.9173 15.2309 39.9582C12.9276 38.9991 10.8376 37.5922 9.08229 35.8192ZM31.0938 15.625C31.0938 17.9042 30.1883 20.0901 28.5767 21.7017C26.9651 23.3133 24.7792 24.2188 22.5 24.2188C20.2208 24.2188 18.0349 23.3133 16.4233 21.7017C14.8117 20.0901 13.9063 17.9042 13.9063 15.625C13.9063 13.3458 14.8117 11.1599 16.4233 9.5483C18.0349 7.93666 20.2208 7.03125 22.5 7.03125C24.7792 7.03125 26.9651 7.93666 28.5767 9.5483C30.1883 11.1599 31.0938 13.3458 31.0938 15.625Z" fill="white"/>
</svg>
