<svg width="24" height="20" viewBox="0 0 24 20" fill="none" xmlns="http://www.w3.org/2000/svg">
<path d="M18.375 10.6159L10.682 17.0267C9.83811 17.73 8.69351 18.1251 7.50003 18.1251C6.30655 18.1251 5.16195 17.73 4.31803 17.0267C3.47411 16.3234 3 15.3696 3 14.375C3 13.3805 3.47411 12.4266 4.31803 11.7234L15.258 2.6067C15.5367 2.37458 15.8675 2.19048 16.2315 2.06491C16.5956 1.93933 16.9857 1.87474 17.3797 1.87482C17.7737 1.87489 18.1639 1.93964 18.5278 2.06536C18.8918 2.19108 19.2225 2.37531 19.501 2.60753C19.7796 2.83975 20.0005 3.11541 20.1512 3.41878C20.3019 3.72215 20.3794 4.04729 20.3793 4.37562C20.3792 4.70395 20.3015 5.02905 20.1506 5.33236C19.9998 5.63567 19.7787 5.91125 19.5 6.14336L8.55203 15.2667C8.26801 15.4936 7.88839 15.6176 7.49497 15.6134C7.10156 15.6093 6.72585 15.4765 6.44883 15.2437C6.1718 15.0108 6.01564 14.6966 6.01399 14.3688C6.01234 14.0409 6.16535 13.7256 6.44003 13.4909L14.25 6.98253M8.56103 15.2584L8.55103 15.2667" stroke="black" stroke-width="1.5" stroke-linecap="round" stroke-linejoin="round"/>
</svg>
