<?xml version="1.0" standalone="no"?>
<!DOCTYPE svg PUBLIC "-//W3C//DTD SVG 20010904//EN"
 "http://www.w3.org/TR/2001/REC-SVG-20010904/DTD/svg10.dtd">
<svg version="1.0" xmlns="http://www.w3.org/2000/svg"
 width="266.000000pt" height="276.000000pt" viewBox="0 0 266.000000 276.000000"
 preserveAspectRatio="xMidYMid meet">

<g transform="translate(0.000000,276.000000) scale(0.100000,-0.100000)"
fill="#000000" stroke="none">
<path d="M1195 2205 c-382 -71 -678 -367 -750 -750 -22 -115 -16 -286 14 -400
55 -206 188 -397 361 -520 93 -65 152 -95 255 -128 517 -167 1059 134 1197
664 39 151 29 354 -24 514 -147 436 -602 704 -1053 620z m48 -444 c4 -1 7
-212 7 -471 0 -369 -3 -470 -12 -470 -124 -5 -222 0 -229 11 -5 9 -5 757 1
916 0 14 148 23 233 14z m477 -472 c0 -258 -3 -469 -7 -469 -5 0 -57 -1 -118
-2 l-110 -1 -3 469 c-1 272 2 470 7 473 5 3 59 5 120 3 l111 -3 0 -470z"/>
</g>
</svg>
