<svg width="100" height="100" viewBox="0 0 100 100" fill="none" xmlns="http://www.w3.org/2000/svg">
<g clip-path="url(#clip0_114_1047)">
<path d="M50 9.375C41.9652 9.375 34.1107 11.7576 27.43 16.2215C20.7492 20.6855 15.5422 27.0302 12.4674 34.4535C9.3926 41.8767 8.58809 50.0451 10.1556 57.9255C11.7231 65.806 15.5923 73.0447 21.2738 78.7262C26.9553 84.4077 34.194 88.2769 42.0745 89.8444C49.955 91.4119 58.1233 90.6074 65.5465 87.5326C72.9698 84.4578 79.3145 79.2508 83.7785 72.57C88.2424 65.8893 90.625 58.0349 90.625 50C90.6044 39.2319 86.3176 28.9108 78.7034 21.2966C71.0892 13.6824 60.7681 9.39565 50 9.375ZM50 84.375C43.2013 84.375 36.5552 82.3589 30.9023 78.5818C25.2494 74.8046 20.8434 69.436 18.2417 63.1547C15.6399 56.8735 14.9592 49.9619 16.2855 43.2938C17.6119 36.6257 20.8858 30.5006 25.6932 25.6932C30.5007 20.8858 36.6257 17.6119 43.2938 16.2855C49.9619 14.9591 56.8736 15.6399 63.1548 18.2416C69.436 20.8434 74.8046 25.2493 78.5818 30.9023C82.359 36.5552 84.375 43.2013 84.375 50C84.3647 59.1136 80.7397 67.8511 74.2954 74.2954C67.8511 80.7397 59.1137 84.3647 50 84.375ZM75 50C75 54.9445 73.5338 59.778 70.7868 63.8893C68.0397 68.0005 64.1353 71.2048 59.5671 73.097C54.999 74.9892 49.9723 75.4843 45.1228 74.5196C40.2732 73.555 35.8187 71.174 32.3223 67.6777C28.826 64.1814 26.445 59.7268 25.4804 54.8773C24.5158 50.0277 25.0108 45.0011 26.903 40.4329C28.7952 35.8648 31.9995 31.9603 36.1108 29.2133C40.222 26.4662 45.0555 25 50 25C56.6273 25.0103 62.9801 27.6476 67.6663 32.3337C72.3524 37.0199 74.9897 43.3728 75 50Z" fill="#E24340"/>
</g>
<defs>
<clipPath id="clip0_114_1047">
<rect width="100" height="100" fill="white"/>
</clipPath>
</defs>
</svg>
