<svg width="15" height="15" viewBox="0 0 15 15" fill="none" xmlns="http://www.w3.org/2000/svg">
<path d="M9.375 6.5625C9.375 7.05978 9.17746 7.53669 8.82583 7.88833C8.47419 8.23996 7.99728 8.4375 7.5 8.4375C7.00272 8.4375 6.52581 8.23996 6.17417 7.88833C5.82254 7.53669 5.625 7.05978 5.625 6.5625C5.625 6.06522 5.82254 5.58831 6.17417 5.23667C6.52581 4.88504 7.00272 4.6875 7.5 4.6875C7.99728 4.6875 8.47419 4.88504 8.82583 5.23667C9.17746 5.58831 9.375 6.06522 9.375 6.5625Z" stroke="black" stroke-width="1.5" stroke-linecap="round" stroke-linejoin="round"/>
<path d="M12.1875 6.5625C12.1875 11.0263 7.5 13.5938 7.5 13.5938C7.5 13.5938 2.8125 11.0263 2.8125 6.5625C2.8125 5.3193 3.30636 4.12701 4.18544 3.24794C5.06451 2.36886 6.2568 1.875 7.5 1.875C8.7432 1.875 9.93549 2.36886 10.8146 3.24794C11.6936 4.12701 12.1875 5.3193 12.1875 6.5625Z" stroke="black" stroke-width="1.5" stroke-linecap="round" stroke-linejoin="round"/>
</svg>
