<svg width="20" height="20" viewBox="0 0 20 20" fill="none" xmlns="http://www.w3.org/2000/svg">
<path fill-rule="evenodd" clip-rule="evenodd" d="M13.75 3.73165V3.92082C14.8325 4.01981 15.9106 4.16215 16.9817 4.34749C17.0625 4.3615 17.1399 4.39129 17.2092 4.43518C17.2786 4.47907 17.3386 4.5362 17.3859 4.60329C17.4332 4.67038 17.4668 4.74612 17.4848 4.8262C17.5028 4.90628 17.5048 4.98911 17.4908 5.06999C17.4768 5.15086 17.447 5.22818 17.4031 5.29754C17.3593 5.36689 17.3021 5.42693 17.235 5.47421C17.1679 5.52149 17.0922 5.55509 17.0121 5.5731C16.932 5.5911 16.8492 5.59316 16.7683 5.57915L16.5942 5.54999L15.7567 16.4417C15.7084 17.0696 15.4248 17.6563 14.9627 18.0842C14.5006 18.5122 13.894 18.75 13.2642 18.75H6.73667C6.10683 18.75 5.50022 18.5122 5.03811 18.0842C4.576 17.6563 4.29246 17.0696 4.24417 16.4417L3.40584 5.54999L3.23167 5.57915C3.1508 5.59316 3.06796 5.5911 2.98788 5.5731C2.90781 5.55509 2.83206 5.52149 2.76497 5.47421C2.62948 5.37872 2.53746 5.23332 2.50917 5.06999C2.48088 4.90666 2.51863 4.73878 2.61412 4.60329C2.70961 4.46779 2.85501 4.37578 3.01834 4.34749C4.08939 4.16192 5.16749 4.01959 6.25001 3.92082V3.73165C6.25001 2.42832 7.26084 1.31499 8.59667 1.27249C9.53227 1.24254 10.4686 1.24254 11.4042 1.27249C12.74 1.31499 13.75 2.42832 13.75 3.73165ZM8.63667 2.52165C9.54561 2.49258 10.4552 2.49258 11.3642 2.52165C11.9917 2.54165 12.5 3.06999 12.5 3.73165V3.82582C10.8349 3.72469 9.16514 3.72469 7.50001 3.82582V3.73165C7.50001 3.06999 8.00751 2.54165 8.63667 2.52165ZM8.34084 7.47582C8.33767 7.39374 8.31836 7.3131 8.28402 7.23848C8.24967 7.16387 8.20097 7.09675 8.14069 7.04096C8.08041 6.98516 8.00973 6.94179 7.93269 6.91331C7.85565 6.88484 7.77375 6.87181 7.69167 6.87499C7.6096 6.87816 7.52895 6.89747 7.45433 6.93181C7.37972 6.96615 7.3126 7.01485 7.25681 7.07513C7.20102 7.13542 7.15764 7.20609 7.12917 7.28314C7.10069 7.36018 7.08767 7.44208 7.09084 7.52415L7.38001 15.0242C7.38642 15.1898 7.45837 15.3461 7.58003 15.4587C7.64027 15.5145 7.71091 15.5578 7.7879 15.5863C7.86489 15.6147 7.94673 15.6277 8.02876 15.6246C8.11078 15.6214 8.19137 15.6021 8.26593 15.5678C8.3405 15.5335 8.40757 15.4848 8.46332 15.4245C8.51908 15.3643 8.56242 15.2937 8.59088 15.2167C8.61933 15.1397 8.63235 15.0578 8.62917 14.9758L8.34084 7.47582ZM12.9075 7.52415C12.9136 7.4405 12.9028 7.35647 12.8758 7.27708C12.8487 7.19768 12.806 7.12455 12.7501 7.06202C12.6942 6.9995 12.6262 6.94887 12.5504 6.91314C12.4745 6.87742 12.3922 6.85734 12.3083 6.85409C12.2245 6.85085 12.1409 6.86451 12.0625 6.89426C11.9841 6.924 11.9124 6.96923 11.8519 7.02725C11.7913 7.08526 11.743 7.15487 11.7099 7.23194C11.6768 7.30901 11.6595 7.39195 11.6592 7.47582L11.37 14.9758C11.3636 15.1416 11.4233 15.3031 11.536 15.4248C11.6487 15.5466 11.8051 15.6186 11.9708 15.625C12.1366 15.6314 12.2981 15.5717 12.4199 15.459C12.5416 15.3463 12.6136 15.1899 12.62 15.0242L12.9075 7.52415Z" fill="white"/>
</svg>
