<svg width="30" height="30" viewBox="0 0 30 30" fill="none" xmlns="http://www.w3.org/2000/svg">
<path d="M24.375 17.8125V14.5312C24.375 13.4124 23.9305 12.3393 23.1394 11.5481C22.3482 10.757 21.2751 10.3125 20.1562 10.3125H18.2812C17.9083 10.3125 17.5506 10.1643 17.2869 9.90062C17.0232 9.6369 16.875 9.27921 16.875 8.90625V7.03125C16.875 5.91237 16.4305 4.83931 15.6394 4.04814C14.8482 3.25697 13.7751 2.8125 12.6562 2.8125H10.3125M16.8512 19.6637L18.75 21.5625M16.8512 19.6637C17.1559 19.3591 17.3978 18.9975 17.5627 18.5994C17.7276 18.2013 17.8125 17.7746 17.8125 17.3438C17.8125 16.4735 17.4668 15.6389 16.8514 15.0236C16.2361 14.4082 15.4015 14.0625 14.5312 14.0625C13.661 14.0625 12.8264 14.4082 12.2111 15.0236C11.5957 15.6389 11.25 16.4735 11.25 17.3438C11.25 17.7746 11.3349 18.2013 11.4998 18.5994C11.6647 18.9975 11.9064 19.3593 12.2111 19.6639C12.5157 19.9686 12.8775 20.2103 13.2756 20.3752C13.6737 20.5401 14.1004 20.625 14.5312 20.625C14.9621 20.625 15.3888 20.5401 15.7869 20.3752C16.185 20.2103 16.5466 19.9684 16.8512 19.6637ZM13.125 2.8125H7.03125C6.255 2.8125 5.625 3.4425 5.625 4.21875V24.8438C5.625 25.62 6.255 26.25 7.03125 26.25H22.9688C23.745 26.25 24.375 25.62 24.375 24.8438V14.0625C24.375 11.0788 23.1897 8.21733 21.08 6.10755C18.9702 3.99776 16.1087 2.8125 13.125 2.8125Z" stroke="#18338E" stroke-width="1.5" stroke-linecap="round" stroke-linejoin="round"/>
</svg>
