<svg width="18" height="18" viewBox="0 0 18 18" fill="none" xmlns="http://www.w3.org/2000/svg">
<path d="M17.1091 0.890819C16.6989 0.480662 16.1426 0.250244 15.5625 0.250244C14.9824 0.250244 14.426 0.480662 14.0158 0.890819L13.0516 1.85499L16.145 4.94832L17.1091 3.98415C17.5193 3.57393 17.7497 3.01758 17.7497 2.43749C17.7497 1.85739 17.5193 1.30104 17.1091 0.890819ZM15.2608 5.83249L12.1675 2.73915L2.04247 12.8642C1.52818 13.3782 1.15012 14.0123 0.942468 14.7092L0.275801 16.9467C0.243615 17.0546 0.241214 17.1693 0.268854 17.2785C0.296493 17.3877 0.353145 17.4875 0.432814 17.5671C0.512483 17.6468 0.612207 17.7035 0.721434 17.7311C0.83066 17.7587 0.945327 17.7563 1.0533 17.7242L3.2908 17.0575C3.98766 16.8498 4.62177 16.4718 5.1358 15.9575L15.2608 5.83249Z" fill="white"/>
</svg>
