<svg width="22" height="22" viewBox="0 0 22 22" fill="none" xmlns="http://www.w3.org/2000/svg">
<path d="M11 0.789978L21.1987 10.9887C21.2362 11.0262 21.2738 11.0612 21.3125 11.0962V18.8437C21.3125 20.1375 20.2625 21.1875 18.9688 21.1875H14.75C14.5014 21.1875 14.2629 21.0887 14.0871 20.9129C13.9113 20.7371 13.8125 20.4986 13.8125 20.25V14.625C13.8125 14.3763 13.7137 14.1379 13.5379 13.9621C13.3621 13.7863 13.1236 13.6875 12.875 13.6875H9.125C8.87636 13.6875 8.6379 13.7863 8.46209 13.9621C8.28627 14.1379 8.1875 14.3763 8.1875 14.625V20.25C8.1875 20.4986 8.08873 20.7371 7.91291 20.9129C7.7371 21.0887 7.49864 21.1875 7.25 21.1875H3.03125C2.40965 21.1875 1.81351 20.9405 1.37397 20.501C0.93443 20.0615 0.6875 19.4653 0.6875 18.8437V11.0962C0.726389 11.0614 0.76432 11.0256 0.80125 10.9887L11 0.789978Z" fill="white"/>
</svg>
