<svg width="24" height="24" viewBox="0 0 24 24" fill="none" xmlns="http://www.w3.org/2000/svg">
<path d="M15.79 13.66L13.55 12.17L12.45 13.83L16.21 16.34L20.78 10.63L19.22 9.38L15.79 13.66Z" fill="white"/>
<path d="M20 6H4V8H20V6Z" fill="white"/>
<path d="M13 16H4V18H13V16Z" fill="white"/>
<path d="M12 11H4V13H12V11Z" fill="white"/>
<path d="M20 16H18V18H20V16Z" fill="white"/>
<path d="M20.44 1H3.56C2.88105 1 2.2299 1.26971 1.74981 1.74981C1.26971 2.2299 1 2.88105 1 3.56V20.44C1 21.119 1.26971 21.7701 1.74981 22.2502C2.2299 22.7303 2.88105 23 3.56 23H20.44C21.119 23 21.7701 22.7303 22.2502 22.2502C22.7303 21.7701 23 21.119 23 20.44V3.56C23 2.88105 22.7303 2.2299 22.2502 1.74981C21.7701 1.26971 21.119 1 20.44 1ZM21 20.44C21 20.5885 20.941 20.731 20.836 20.836C20.731 20.941 20.5885 21 20.44 21H3.56C3.41148 21 3.26904 20.941 3.16402 20.836C3.059 20.731 3 20.5885 3 20.44V3.56C3 3.41148 3.059 3.26904 3.16402 3.16402C3.26904 3.059 3.41148 3 3.56 3H20.44C20.5885 3 20.731 3.059 20.836 3.16402C20.941 3.26904 21 3.41148 21 3.56V20.44Z" fill="white"/>
</svg>
