<svg width="40" height="40" viewBox="0 0 40 40" fill="none" xmlns="http://www.w3.org/2000/svg">
<path d="M26.3167 22.7667L22.5833 20.2833L20.75 23.05L27.0167 27.2333L34.6333 17.7167L32.0333 15.6333L26.3167 22.7667Z" fill="#18338E"/>
<path d="M33.3334 10H6.66675V13.3333H33.3334V10Z" fill="#18338E"/>
<path d="M21.6667 26.6667H6.66675V30H21.6667V26.6667Z" fill="#18338E"/>
<path d="M20.0001 18.3333H6.66675V21.6667H20.0001V18.3333Z" fill="#18338E"/>
<path d="M33.3333 26.6667H30V30H33.3333V26.6667Z" fill="#18338E"/>
<path d="M34.0667 1.66666H5.93341C4.80182 1.66666 3.71658 2.11619 2.91643 2.91634C2.11627 3.7165 1.66675 4.80174 1.66675 5.93333V34.0667C1.66675 35.1983 2.11627 36.2835 2.91643 37.0837C3.71658 37.8838 4.80182 38.3333 5.93341 38.3333H34.0667C35.1983 38.3333 36.2836 37.8838 37.0837 37.0837C37.8839 36.2835 38.3334 35.1983 38.3334 34.0667V5.93333C38.3334 4.80174 37.8839 3.7165 37.0837 2.91634C36.2836 2.11619 35.1983 1.66666 34.0667 1.66666ZM35.0001 34.0667C35.0001 34.3142 34.9017 34.5516 34.7267 34.7266C34.5517 34.9017 34.3143 35 34.0667 35H5.93341C5.68588 35 5.44848 34.9017 5.27345 34.7266C5.09841 34.5516 5.00008 34.3142 5.00008 34.0667V5.93333C5.00008 5.6858 5.09841 5.4484 5.27345 5.27336C5.44848 5.09833 5.68588 5 5.93341 5H34.0667C34.3143 5 34.5517 5.09833 34.7267 5.27336C34.9017 5.4484 35.0001 5.6858 35.0001 5.93333V34.0667Z" fill="#18338E"/>
</svg>
