<svg width="24" height="24" viewBox="0 0 24 24" fill="none" xmlns="http://www.w3.org/2000/svg">
<path d="M15.5713 18.3525C17.9003 18.0767 20.1886 17.5271 22.3888 16.715C20.5255 14.651 19.4959 11.9681 19.5 9.1875V8.25C19.5 6.26088 18.7098 4.35322 17.3033 2.9467C15.8968 1.54018 13.9891 0.75 12 0.75C10.0109 0.75 8.10322 1.54018 6.6967 2.9467C5.29018 4.35322 4.5 6.26088 4.5 8.25V9.1875C4.50377 11.9683 3.47373 14.6512 1.61 16.715C3.77625 17.515 6.06 18.0713 8.42875 18.3525M15.5713 18.3525C13.1987 18.6339 10.8013 18.6339 8.42875 18.3525M15.5713 18.3525C15.7514 18.9148 15.7962 19.5117 15.702 20.0947C15.6078 20.6776 15.3773 21.23 15.0292 21.707C14.6812 22.184 14.2254 22.572 13.699 22.8395C13.1726 23.107 12.5905 23.2465 12 23.2465C11.4095 23.2465 10.8274 23.107 10.301 22.8395C9.77462 22.572 9.31884 22.184 8.97078 21.707C8.62271 21.23 8.39221 20.6776 8.29802 20.0947C8.20383 19.5117 8.24862 18.9148 8.42875 18.3525" stroke="white" stroke-width="1.5" stroke-linecap="round" stroke-linejoin="round"/>
</svg>
