<svg width="40" height="40" viewBox="0 0 40 40" fill="none" xmlns="http://www.w3.org/2000/svg">
<path d="M24.9999 37.9167H14.9999C5.94992 37.9167 2.08325 34.05 2.08325 25V15C2.08325 5.95 5.94992 2.08334 14.9999 2.08334H24.9999C34.0499 2.08334 37.9166 5.95 37.9166 15V25C37.9166 34.05 34.0499 37.9167 24.9999 37.9167ZM14.9999 4.58334C7.31659 4.58334 4.58325 7.31667 4.58325 15V25C4.58325 32.6833 7.31659 35.4167 14.9999 35.4167H24.9999C32.6833 35.4167 35.4166 32.6833 35.4166 25V15C35.4166 7.31667 32.6833 4.58334 24.9999 4.58334H14.9999Z" fill="#34A853"/>
<path d="M17.6325 25.9668C17.2992 25.9668 16.9825 25.8335 16.7492 25.6002L12.0324 20.8835C11.5491 20.4002 11.5491 19.6002 12.0324 19.1168C12.5158 18.6335 13.3158 18.6335 13.7991 19.1168L17.6325 22.9502L26.1992 14.3835C26.6825 13.9002 27.4825 13.9002 27.9658 14.3835C28.4492 14.8668 28.4492 15.6668 27.9658 16.1502L18.5158 25.6002C18.2825 25.8335 17.9658 25.9668 17.6325 25.9668Z" fill="#34A853"/>
</svg>
