<svg width="18" height="24" viewBox="0 0 18 24" fill="none" xmlns="http://www.w3.org/2000/svg">
<path d="M16.4084 2.41433H12.6076V0.788833C12.6076 0.597598 12.4402 0.430267 12.249 0.430267H6.58367C6.39243 0.430267 6.2251 0.597598 6.2251 0.788833V2.41433H2.20916C1.37251 2.41433 0.703188 3.08365 0.703188 3.92031V21.9442C0.703188 22.7809 1.37251 23.4502 2.20916 23.4502H16.4323C17.2689 23.4502 17.9382 22.7809 17.9382 21.9442V3.92031C17.9143 3.08365 17.245 2.41433 16.4084 2.41433ZM6.58367 7.05178H12.249C12.4402 7.05178 12.6076 6.88445 12.6076 6.69322V5.13943H15.1175V20.6056H3.5V5.16334H6.2251V6.69322C6.2251 6.90835 6.39243 7.05178 6.58367 7.05178ZM11.8904 1.1474V4.78087V6.33465H6.94223V4.78087V2.74899V1.1474H11.8904ZM17.1972 21.9203C17.1972 22.3506 16.8386 22.7092 16.4084 22.7092H2.20916C1.77889 22.7092 1.42032 22.3506 1.42032 21.9203V3.92031C1.42032 3.49003 1.77889 3.13146 2.20916 3.13146H6.2251V4.4462H3.14144C2.9502 4.4462 2.78287 4.61353 2.78287 4.80477V20.988C2.78287 21.1793 2.9502 21.3466 3.14144 21.3466H15.4761C15.6673 21.3466 15.8347 21.1793 15.8347 20.988V4.80477C15.8347 4.61353 15.6673 4.4462 15.4761 4.4462H12.6076V3.13146H16.4084C16.8386 3.13146 17.1972 3.49003 17.1972 3.92031V21.9203Z" fill="#E24340"/>
<path d="M4.38446 11.0916C4.38446 11.2829 4.55179 11.4502 4.74303 11.4502H13.9462C14.1375 11.4502 14.3048 11.2829 14.3048 11.0916C14.3048 10.9004 14.1375 10.7331 13.9462 10.7331H4.74303C4.55179 10.7331 4.38446 10.9004 4.38446 11.0916Z" fill="#E24340"/>
<path d="M13.9462 13.243H4.74303C4.55179 13.243 4.38446 13.4103 4.38446 13.6016C4.38446 13.7928 4.55179 13.9601 4.74303 13.9601H13.9462C14.1375 13.9601 14.3048 13.7928 14.3048 13.6016C14.3048 13.4103 14.1375 13.243 13.9462 13.243Z" fill="#E24340"/>
<path d="M13.9462 15.8725H4.74303C4.55179 15.8725 4.38446 16.0398 4.38446 16.2311C4.38446 16.4223 4.55179 16.5896 4.74303 16.5896H13.9462C14.1375 16.5896 14.3048 16.4223 14.3048 16.2311C14.3048 16.0398 14.1375 15.8725 13.9462 15.8725Z" fill="#E24340"/>
</svg>
