<svg width="40" height="40" viewBox="0 0 40 40" fill="none" xmlns="http://www.w3.org/2000/svg">
<path d="M26.3167 22.7666L22.5833 20.2833L20.75 23.05L27.0167 27.2333L34.6333 17.7166L32.0333 15.6333L26.3167 22.7666Z" fill="#18338E"/>
<path d="M33.3332 10H6.6665V13.3333H33.3332V10Z" fill="#18338E"/>
<path d="M21.6665 26.6667H6.6665V30.0001H21.6665V26.6667Z" fill="#18338E"/>
<path d="M19.9998 18.3333H6.6665V21.6666H19.9998V18.3333Z" fill="#18338E"/>
<path d="M33.3333 26.6667H30V30.0001H33.3333V26.6667Z" fill="#18338E"/>
<path d="M34.0665 1.66675H5.93317C4.80158 1.66675 3.71634 2.11627 2.91618 2.91643C2.11603 3.71658 1.6665 4.80182 1.6665 5.93341V34.0667C1.6665 35.1983 2.11603 36.2836 2.91618 37.0837C3.71634 37.8839 4.80158 38.3334 5.93317 38.3334H34.0665C35.1981 38.3334 36.2833 37.8839 37.0835 37.0837C37.8836 36.2836 38.3332 35.1983 38.3332 34.0667V5.93341C38.3332 4.80182 37.8836 3.71658 37.0835 2.91643C36.2833 2.11627 35.1981 1.66675 34.0665 1.66675ZM34.9998 34.0667C34.9998 34.3143 34.9015 34.5517 34.7265 34.7267C34.5514 34.9017 34.314 35.0001 34.0665 35.0001H5.93317C5.68564 35.0001 5.44824 34.9017 5.2732 34.7267C5.09817 34.5517 4.99984 34.3143 4.99984 34.0667V5.93341C4.99984 5.68588 5.09817 5.44848 5.2732 5.27345C5.44824 5.09841 5.68564 5.00008 5.93317 5.00008H34.0665C34.314 5.00008 34.5514 5.09841 34.7265 5.27345C34.9015 5.44848 34.9998 5.68588 34.9998 5.93341V34.0667Z" fill="#18338E"/>
</svg>
