<svg width="23" height="19" viewBox="0 0 23 19" fill="none" xmlns="http://www.w3.org/2000/svg">
<path d="M22.206 11.292L17.206 6.292C17.0174 6.10984 16.7648 6.00905 16.5026 6.01133C16.2404 6.0136 15.9896 6.11877 15.8042 6.30418C15.6188 6.48959 15.5136 6.7404 15.5113 7.0026C15.509 7.2648 15.6098 7.5174 15.792 7.706L19.086 11H7C5.80653 11 4.66193 10.5259 3.81802 9.68198C2.97411 8.83807 2.5 7.69347 2.5 6.5C2.5 5.30653 2.97411 4.16193 3.81802 3.31802C4.66193 2.47411 5.80653 2 7 2H11.5C11.7652 2 12.0196 1.89464 12.2071 1.70711C12.3946 1.51957 12.5 1.26522 12.5 1C12.5 0.734784 12.3946 0.48043 12.2071 0.292893C12.0196 0.105357 11.7652 0 11.5 0H7C5.27609 0 3.62279 0.684819 2.40381 1.90381C1.18482 3.12279 0.5 4.77609 0.5 6.5C0.5 8.22391 1.18482 9.87721 2.40381 11.0962C3.62279 12.3152 5.27609 13 7 13H19.086L15.793 16.293C15.6975 16.3852 15.6213 16.4956 15.5689 16.6176C15.5165 16.7396 15.4889 16.8708 15.4877 17.0036C15.4866 17.1364 15.5119 17.2681 15.5622 17.391C15.6125 17.5138 15.6867 17.6255 15.7806 17.7194C15.8745 17.8133 15.9862 17.8875 16.109 17.9378C16.2319 17.9881 16.3636 18.0134 16.4964 18.0123C16.6292 18.0111 16.7604 17.9835 16.8824 17.9311C17.0044 17.8787 17.1148 17.8025 17.207 17.707L22.207 12.707C22.2999 12.6141 22.3736 12.5037 22.4238 12.3823C22.4741 12.2609 22.4999 12.1307 22.4998 11.9993C22.4997 11.8679 22.4737 11.7378 22.4233 11.6164C22.3729 11.495 22.299 11.3848 22.206 11.292Z" fill="#3E39FE"/>
</svg>
