<svg width="21" height="21" viewBox="0 0 21 21" fill="none" xmlns="http://www.w3.org/2000/svg">
<path d="M20.5 4.71999L15.905 0.864985L14.62 2.39499L19.215 6.24999L20.5 4.71999ZM6.38 2.38999L5.095 0.859985L0.5 4.71499L1.785 6.24499L6.38 2.38999ZM11 6.99999H9.5V13L14.245 15.855L15 14.62L11 12.25V6.99999ZM10.495 2.99999C5.52 2.99999 1.5 7.02999 1.5 12C1.5 16.97 5.52 21 10.495 21C15.47 21 19.5 16.97 19.5 12C19.5 7.02999 15.47 2.99999 10.495 2.99999ZM10.5 19C6.635 19 3.5 15.865 3.5 12C3.5 8.13499 6.635 4.99999 10.5 4.99999C14.365 4.99999 17.5 8.13499 17.5 12C17.5 15.865 14.37 19 10.5 19Z" fill="#3E39FE"/>
</svg>
