<svg width="25" height="13" viewBox="0 0 25 13" fill="none" xmlns="http://www.w3.org/2000/svg">
<path d="M23.0001 0.9375H17.0001C16.6023 0.9375 16.2208 1.09554 15.9395 1.37684C15.6582 1.65814 15.5001 2.03968 15.5001 2.4375C15.5001 2.83533 15.6582 3.21686 15.9395 3.49816C16.2208 3.77947 16.6023 3.9375 17.0001 3.9375H19.379L14.0001 9.3164L9.06068 4.37695C8.92143 4.23763 8.7561 4.12712 8.57412 4.05171C8.39215 3.97631 8.19711 3.9375 8.00013 3.9375C7.80315 3.9375 7.60811 3.97631 7.42614 4.05171C7.24416 4.12712 7.07883 4.23763 6.93958 4.37695L0.93958 10.377C0.659597 10.6585 0.50268 11.0396 0.503233 11.4366C0.503785 11.8337 0.661762 12.2143 0.942527 12.4951C1.22329 12.7759 1.60393 12.9338 2.00099 12.9344C2.39806 12.9349 2.77913 12.778 3.06068 12.498L8.00013 7.5586L12.9396 12.498C13.0788 12.6374 13.2442 12.7479 13.4261 12.8233C13.6081 12.8987 13.8032 12.9375 14.0001 12.9375C14.1971 12.9375 14.3922 12.8987 14.5741 12.8233C14.7561 12.7479 14.9214 12.6374 15.0607 12.498L21.5001 6.0586V8.4375C21.5001 8.83533 21.6582 9.21686 21.9395 9.49816C22.2208 9.77946 22.6023 9.9375 23.0001 9.9375C23.398 9.9375 23.7795 9.77946 24.0608 9.49816C24.3421 9.21686 24.5001 8.83533 24.5001 8.4375V2.4375C24.5002 2.24049 24.4615 2.04538 24.3862 1.86334C24.3108 1.6813 24.2003 1.5159 24.061 1.37659C23.9217 1.23728 23.7563 1.1268 23.5743 1.05145C23.3922 0.976111 23.1971 0.937389 23.0001 0.9375Z" fill="#3DC739"/>
</svg>
